HIERARCHY
ROOT Hips
{
 OFFSET 0.000000 0.000000 0.000000
 CHANNELS 6 Xposition Yposition Zposition Yrotation Xrotation Zrotation
 JOINT Chest
 {
  OFFSET 0.000000 9.581000 -0.001100
  CHANNELS 3 Yrotation Xrotation Zrotation
  JOINT Chest2
  {
   OFFSET 0.000000 9.561100 0.002200
   CHANNELS 3 Yrotation Xrotation Zrotation
   JOINT Chest3
   {
    OFFSET 0.000000 9.521100 0.000000
    CHANNELS 3 Yrotation Xrotation Zrotation
    JOINT Chest4
    {
     OFFSET 0.000000 9.511400 0.000000
     CHANNELS 3 Yrotation Xrotation Zrotation
     JOINT Neck
     {
      OFFSET 0.000000 14.375100 0.000000
      CHANNELS 3 Yrotation Xrotation Zrotation
      JOINT Head
      {
       OFFSET 0.000000 8.901200 0.004600
       CHANNELS 3 Yrotation Xrotation Zrotation
       End Site
       {
        OFFSET 0.000000 16.962200 0.002400
       }
      }
     }
     JOINT RightCollar
     {
      OFFSET -2.920100 9.518800 0.000000
      CHANNELS 3 Yrotation Xrotation Zrotation
      JOINT RightShoulder
      {
       OFFSET -13.664500 0.000000 0.000000
       CHANNELS 3 Yrotation Xrotation Zrotation
       JOINT RightElbow
       {
        OFFSET 0.000000 -29.999200 0.000000
        CHANNELS 3 Yrotation Xrotation Zrotation
        JOINT RightWrist
        {
         OFFSET 0.000000 -24.253600 0.000000
         CHANNELS 3 Yrotation Xrotation Zrotation
         End Site
         {
          OFFSET 0.000000 -17.918900 0.000000
         }
        }
       }
      }
     }
     JOINT LeftCollar
     {
      OFFSET 2.920100 9.518800 0.000000
      CHANNELS 3 Yrotation Xrotation Zrotation
      JOINT LeftShoulder
      {
       OFFSET 13.664500 0.000000 0.000000
       CHANNELS 3 Yrotation Xrotation Zrotation
       JOINT LeftElbow
       {
        OFFSET 0.000000 -29.999200 0.000000
        CHANNELS 3 Yrotation Xrotation Zrotation
        JOINT LeftWrist
        {
         OFFSET 0.000000 -24.253600 0.000000
         CHANNELS 3 Yrotation Xrotation Zrotation
         End Site
         {
          OFFSET 0.000000 -17.918900 0.000000
         }
        }
       }
      }
     }
    }
   }
  }
 }
 JOINT RightHip
 {
  OFFSET -7.797300 0.005300 0.000500
  CHANNELS 3 Yrotation Xrotation Zrotation
  JOINT RightKnee
  {
   OFFSET 0.000000 -40.663400 -0.000500
   CHANNELS 3 Yrotation Xrotation Zrotation
   JOINT RightAnkle
   {
    OFFSET 0.000000 -39.523700 -0.000900
    CHANNELS 3 Yrotation Xrotation Zrotation
    JOINT RightToe
    {
     OFFSET 0.000000 -6.418000 14.485300
     CHANNELS 3 Yrotation Xrotation Zrotation
     End Site
     {
      OFFSET 0.000000 -1.465200 6.326400
     }
    }
   }
  }
 }
 JOINT LeftHip
 {
  OFFSET 7.797300 0.005300 0.000500
  CHANNELS 3 Yrotation Xrotation Zrotation
  JOINT LeftKnee
  {
   OFFSET 0.000000 -40.663400 -0.000500
   CHANNELS 3 Yrotation Xrotation Zrotation
   JOINT LeftAnkle
   {
    OFFSET 0.000000 -39.523700 -0.000900
    CHANNELS 3 Yrotation Xrotation Zrotation
    JOINT LeftToe
    {
     OFFSET 0.000000 -6.418000 14.485300
     CHANNELS 3 Yrotation Xrotation Zrotation
     End Site
     {
      OFFSET 0.000000 -1.465200 6.326400
     }
    }
   }
  }
 }
}
MOTION
Frames: 14
Frame Time: 0.008333
0.000000 86.422400 0.000000 0.000000 -5.767877 0.000000 0.000000 11.653817 0.000000 0.000000 -5.885947 0.000000 0.000000 -0.000000 0.000000 0.000000 -0.000000 0.000000 0.000000 12.528835 0.000000 0.000000 0.711642 0.000000 0.000000 -0.000000 0.000000 0.000000 0.000000 -90.000000 0.000000 -2.309062 0.000000 0.000000 2.309062 0.000000 0.000000 -0.000000 0.000000 0.000000 -0.000000 90.000000 0.000000 -2.309062 0.000000 0.000000 2.309062 0.000000 0.000000 8.520406 0.000000 0.000000 1.905762 0.000000 -0.000000 -4.658285 0.000000 0.000000 -0.000000 0.000000 0.000000 8.520406 0.000000 0.000000 1.905762 0.000000 -0.000000 -4.658285 0.000000 0.000000 -0.000000 0.000000
-15.447000 126.856302 16.273606 -177.541419 -44.403467 -6.075698 2.597879 25.300175 2.517830 0.309524 4.074347 0.345825 0.560891 6.527322 0.495062 2.024450 20.908434 1.969545 -1.212766 11.989620 -0.080456 -1.237894 -13.054763 0.207377 0.791954 2.355103 3.104603 -3.478915 -8.322194 -10.059922 -102.692472 -66.624011 152.134611 6.319490 11.273086 0.457918 -10.417296 0.204226 1.015615 -1.241678 -9.076927 10.834780 69.059815 -63.078690 -114.309145 -2.360277 -5.963307 5.223368 -19.441135 -10.915731 3.181625 23.238290 81.169279 37.685190 23.519928 -25.121242 14.599394 0.004078 -0.012569 0.001806 12.580610 -15.938588 -7.448692 4.803883 64.375799 -10.789606 1.044818 -3.718954 14.828148 0.000563 0.002363 0.000249
-15.448061 126.855251 16.274327 -177.519206 -44.391246 -6.080642 2.598767 25.295703 2.494123 0.313075 4.076824 0.340378 0.563034 6.525189 0.491326 2.032883 20.909146 1.952040 -1.230174 11.953216 -0.087486 -1.254943 -13.091653 0.204112 0.834515 2.361570 3.094581 -3.530463 -8.327345 -10.039884 -102.559709 -66.594236 152.005208 6.341927 11.165618 0.406708 -10.421854 0.202383 1.051875 -1.229479 -9.090387 10.836577 69.057128 -63.093210 -114.317265 -2.411077 -5.935989 5.183504 -19.458784 -10.922952 3.179358 23.296507 81.160492 37.748016 23.515508 -25.120374 14.582350 0.006287 -0.009090 0.002785 12.567070 -15.946836 -7.460284 4.804958 64.375539 -10.791009 1.043815 -3.715119 14.827942 0.000868 0.002705 0.000385
-15.448013 126.855358 16.274006 -177.510665 -44.389031 -6.082728 2.613536 25.298559 2.477720 0.315176 4.077809 0.338256 0.566379 6.524957 0.483806 2.041680 20.910091 1.933864 -1.249626 11.914214 -0.093541 -1.277915 -13.147982 0.184641 0.852012 2.354136 3.120338 -3.555552 -8.319182 -10.056811 -102.429244 -66.566302 151.882853 6.361870 11.009548 0.319749 -10.428617 0.200641 1.090117 -1.228156 -9.106584 10.827807 69.047658 -63.115510 -114.304525 -2.462229 -5.925134 5.140486 -19.469866 -10.919412 3.185480 23.278789 81.158103 37.726927 23.519130 -25.120239 14.571635 0.006809 -0.006492 0.003016 12.557421 -15.946060 -7.457190 4.797490 64.373905 -10.808196 1.043226 -3.710751 14.830942 0.000849 0.001662 0.000376
-15.447755 126.855496 16.273723 -177.504661 -44.386997 -6.084563 2.619543 25.299111 2.468561 0.325918 4.080387 0.324760 0.571269 6.525713 0.475000 2.043168 20.906666 1.945498 -1.260507 11.894025 -0.096089 -1.305239 -13.208031 0.151740 0.852582 2.348369 3.144206 -3.554020 -8.308387 -10.106267 -102.315903 -66.541119 151.777023 6.385860 10.796072 0.176717 -10.410986 0.190674 1.068885 -1.238953 -9.119691 10.840909 69.247085 -63.119064 -114.496340 -2.496193 -5.833307 5.110584 -19.477318 -10.917895 3.189458 23.283148 81.155076 37.730986 23.527530 -25.114493 14.559238 0.006938 -0.005180 0.003074 12.550092 -15.948125 -7.453761 4.790855 64.378461 -10.824582 1.044791 -3.709355 14.833768 -0.000337 -0.000890 -0.000149
-15.448148 126.855336 16.273727 -177.491755 -44.382374 -6.087855 2.619548 25.297989 2.455092 0.338696 4.083268 0.308607 0.574025 6.525794 0.467935 2.045373 20.903072 1.957681 -1.290664 11.846446 -0.151066 -1.333407 -13.242097 0.172474 0.883464 2.334096 3.152323 -3.581910 -8.289594 -10.142465 -102.243308 -66.521495 151.704580 6.416696 10.513066 -0.041969 -10.370445 0.168132 1.003430 -1.288548 -9.167858 10.840937 69.190073 -63.163241 -114.437992 -2.520636 -5.779591 5.108095 -19.488476 -10.919766 3.191424 23.278195 81.154003 37.726060 23.528606 -25.113257 14.551735 0.006008 -0.004804 0.002662 12.535304 -15.949048 -7.456946 4.790623 64.378179 -10.832591 1.047290 -3.710435 14.834117 -0.000050 -0.001090 -0.000022
-15.448288 126.855069 16.273957 -177.487380 -44.377162 -6.087439 2.659365 25.302761 2.416219 0.345326 4.083635 0.301438 0.549553 6.516127 0.513564 2.060725 20.906897 1.920460 -1.312602 11.812955 -0.137028 -1.347546 -13.254565 0.191439 0.960847 2.296670 3.186814 -3.662084 -8.252856 -10.176344 -102.235869 -66.506299 151.681806 6.451616 10.157580 -0.338418 -10.348687 0.152981 0.989553 -1.337164 -9.168168 10.894120 69.216995 -63.168512 -114.461791 -2.606793 -5.835617 5.109372 -19.494728 -10.921973 3.197331 23.249237 81.154715 37.695848 23.520914 -25.119685 14.552367 0.002958 -0.006242 0.001311 12.525777 -15.949566 -7.457430 4.781444 64.375446 -10.847959 1.050871 -3.712692 14.833463 0.001158 -0.000392 0.000513
-15.447609 126.855121 16.273969 -177.482091 -44.374387 -6.093232 2.675981 25.304155 2.405954 0.355804 4.086463 0.290969 0.561750 6.519286 0.498303 2.070610 20.901603 1.916299 -1.333937 11.787682 -0.102503 -1.409792 -13.334676 0.152008 0.992628 2.272783 3.245663 -3.697763 -8.226822 -10.237550 -102.256202 -66.461866 151.679577 6.507372 9.767063 -0.707982 -10.342962 0.143777 0.990891 -1.370525 -9.206467 10.883372 69.297502 -63.184911 -114.536615 -2.688957 -5.843606 5.147667 -19.507194 -10.922204 3.205834 23.245631 81.157124 37.684693 23.529146 -25.116015 14.549371 0.002623 -0.005862 0.001162 12.513251 -15.950415 -7.453763 4.777596 64.373344 -10.856920 1.056574 -3.713970 14.831050 0.001541 0.000085 0.000683
-15.448326 126.855157 16.273893 -177.468623 -44.371538 -6.096738 2.670289 25.304079 2.395580 0.378708 4.095793 0.266655 0.576188 6.525178 0.483286 2.082297 20.895191 1.912948 -1.398506 11.724720 -0.158842 -1.466918 -13.376468 0.200704 1.023620 2.240619 3.311025 -3.740236 -8.195852 -10.308550 -102.371020 -66.439779 151.759649 6.515139 9.338326 -1.122908 -10.343977 0.130358 0.995055 -1.404515 -9.248064 10.861503 69.385589 -63.207688 -114.619207 -2.757144 -5.839041 5.224586 -19.525730 -10.926076 3.202741 23.277248 81.161996 37.705844 23.546373 -25.109359 14.546622 0.003960 -0.003610 0.001754 12.496761 -15.949738 -7.460085 4.783732 64.370457 -10.856339 1.059360 -3.711129 14.828476 0.002129 0.000188 0.000943
-15.448311 126.855435 16.273647 -177.468560 -44.371120 -6.095368 2.700635 25.309523 2.379042 0.380754 4.105435 0.262902 0.584299 6.530363 0.477415 2.134382 20.915773 1.850254 -1.475190 11.654523 -0.118491 -1.522069 -13.420277 0.231924 1.028637 2.166679 3.448102 -3.791119 -8.156101 -10.390957 -102.542646 -66.403203 151.887817 6.486644 8.919624 -1.547051 -10.378583 0.096256 1.067149 -1.437053 -9.282149 10.848010 69.464073 -63.235590 -114.685445 -2.837781 -5.853272 5.327063 -19.527408 -10.926864 3.201551 23.267502 81.164224 37.695908 23.558416 -25.106303 14.548773 0.003240 -0.003656 0.001436 12.490915 -15.949179 -7.460888 4.789468 64.369118 -10.855989 1.059293 -3.702692 14.838178 0.003216 0.000478 0.001425
-15.448741 126.855213 16.273849 -177.471413 -44.366508 -6.089054 2.754665 25.335528 2.339609 0.364650 4.094859 0.286935 0.576439 6.520568 0.492654 2.177096 20.949063 1.794167 -1.540031 11.594086 -0.097962 -1.586510 -13.473806 0.246798 1.051204 2.085628 3.558294 -3.850898 -8.120750 -10.443256 -102.745982 -66.389880 152.034163 6.432879 8.518727 -1.954052 -10.398724 0.052943 1.102157 -1.466273 -9.317904 10.830067 69.556233 -63.281464 -114.753082 -2.929362 -5.855156 5.458487 -19.532404 -10.932305 3.201440 23.275015 81.164132 37.699415 23.550923 -25.115160 14.560249 0.001796 -0.006649 0.000795 12.487095 -15.953805 -7.473056 4.800888 64.365092 -10.848016 1.069384 -3.696805 14.844073 0.000182 -0.001827 0.000080
-15.448054 126.854828 16.274318 -177.476112 -44.359350 -6.088000 2.786610 25.348966 2.324022 0.370196 4.100082 0.283054 0.593155 6.535605 0.475799 2.198570 20.951094 1.788886 -1.602882 11.538379 -0.095341 -1.654326 -13.530837 0.264076 1.082400 2.007680 3.648284 -3.914051 -8.088608 -10.493630 -103.037717 -66.379923 152.227159 6.359463 8.120002 -2.317578 -10.408469 0.002634 1.116579 -1.503107 -9.350949 10.806230 69.658375 -63.350174 -114.812817 -3.024641 -5.847438 5.623588 -19.541174 -10.936734 3.206119 23.242116 81.165471 37.662462 23.562923 -25.116030 14.563743 0.000883 -0.006982 0.000391 12.486181 -15.962233 -7.478275 4.809880 64.361774 -10.839376 1.075966 -3.691212 14.849522 -0.001466 -0.002801 -0.000650
-15.448420 126.854181 16.274942 -177.483869 -44.350084 -6.078525 2.803150 25.350922 2.310560 0.385379 4.119498 0.265095 0.610052 6.554462 0.459422 2.217105 20.953994 1.782649 -1.665552 11.476137 -0.090181 -1.722713 -13.594508 0.284011 1.119374 1.927392 3.727020 -4.006443 -8.030082 -10.625995 -103.450119 -66.277464 152.509987 6.277519 7.703193 -2.628567 -10.411881 -0.062643 1.128009 -1.550986 -9.377673 10.776179 69.758520 -63.433663 -114.851738 -3.115747 -5.830347 5.832394 -19.539297 -10.946846 3.205631 23.246348 81.165016 37.664304 23.568318 -25.120162 14.568621 -0.000627 -0.005641 -0.000278 12.489431 -15.972072 -7.488336 4.795782 64.363086 -10.855577 1.086583 -3.688197 14.863709 -0.002466 -0.002780 -0.001092
-15.448143 126.854514 16.274598 -177.486090 -44.347912 -6.077276 2.817839 25.361080 2.301983 0.399225 4.140735 0.248197 0.604178 6.541934 0.472630 2.243696 20.994023 1.744943 -1.729252 11.406315 -0.081282 -1.793368 -13.665972 0.308192 1.165672 1.845895 3.795349 -4.127916 -7.987592 -10.698783 -103.950355 -66.228388 152.855617 6.168789 7.248558 -2.895769 -10.414056 -0.145536 1.134179 -1.595239 -9.368469 10.797970 69.930179 -63.482637 -114.957598 -3.202497 -5.799186 6.101516 -19.540784 -10.947598 3.206321 23.252802 81.164912 37.670667 23.572165 -25.121281 14.566828 -0.000747 -0.004398 -0.000331 12.489735 -15.974763 -7.490802 4.799849 64.363061 -10.852741 1.085187 -3.681355 14.882051 -0.000894 -0.002784 -0.000396
